<!-- <svg width="1000" height="1000" viewBox="0 0 25 25" fill="none"
xmlns="http://www.w3.org/2000/svg">
    <path
        d="M12.5011 4.71771C13.6912 3.65229 15.2443 3.0832 16.8411 3.12737C18.4378 3.17154 19.957 3.82562
21.0865 4.95521C22.215 6.08353 22.8691 7.60078 22.9148 9.19592C22.9605 10.7911 22.3943 12.3433
21.3323 13.5344L12.499 22.3802L3.66773 13.5344C2.60446 12.3427 2.03773 10.7891 2.08391
9.19269C2.1301 7.59626 2.78567 6.07808 3.91606 4.94982C5.04644 3.82157 6.56587 3.16886 8.16238
3.12569C9.7589 3.08253 11.3114 3.65218 12.5011 4.71771Z"
        fill="#4ECB71" />
</svg>
     -->

<svg width="50" height="50" viewBox="0 0 50 50" fill="none" xmlns="http://www.w3.org/2000/svg">
    <path
        d="M25.0021 9.43542C27.3824 7.30458 30.4885 6.16639 33.682 6.25474C36.8756 6.34308 39.914 7.65125 42.1729 9.91042C44.4299 12.1671 45.7382 15.2016 45.8296 18.3918C45.921 21.5821 44.7886 24.6866 42.6646 27.0688L24.9979 44.7604L7.3354 27.0688C5.20885 24.6853 4.07541 21.5782 4.16777 18.3854C4.26013 15.1925 5.57129 12.1562 7.83206 9.89965C10.0928 7.64314 13.1317 6.33772 16.3247 6.25139C19.5177 6.16506 22.6227 7.30437 25.0021 9.43542Z"
        fill="#4ECB71" />
</svg>
        