<svg width="50" height="50" viewBox="0 0 50 50" fill="none" xmlns="http://www.w3.org/2000/svg">
    <path
        d="M34.7656 6.64062C30.6641 6.64062 27.0977 8.49023 25 11.5898C22.9023 8.49023 19.3359 6.64062 15.2344 6.64062C12.1275 6.64424 9.14887 7.88006 6.95196 10.077C4.75506 12.2739 3.51924 15.2525 3.51562 18.3594C3.51563 24.0625 7.07031 29.998 14.082 35.998C17.295 38.7359 20.7657 41.156 24.4453 43.2246C24.6158 43.3162 24.8064 43.3642 25 43.3642C25.1936 43.3642 25.3842 43.3162 25.5547 43.2246C29.2343 41.156 32.705 38.7359 35.918 35.998C42.9297 29.998 46.4844 24.0625 46.4844 18.3594C46.4808 15.2525 45.2449 12.2739 43.048 10.077C40.8511 7.88006 37.8725 6.64424 34.7656 6.64062ZM25 40.8418C21.7949 38.9922 5.85938 29.2422 5.85938 18.3594C5.86196 15.8738 6.85051 13.4907 8.6081 11.7331C10.3657 9.97551 12.7488 8.98696 15.2344 8.98438C19.1953 8.98438 22.5215 11.0996 23.916 14.5059C24.0043 14.7208 24.1545 14.9046 24.3475 15.034C24.5405 15.1634 24.7676 15.2325 25 15.2325C25.2324 15.2325 25.4595 15.1634 25.6525 15.034C25.8455 14.9046 25.9957 14.7208 26.084 14.5059C27.4785 11.0996 30.8047 8.98438 34.7656 8.98438C37.2512 8.98696 39.6343 9.97551 41.3919 11.7331C43.1495 13.4907 44.138 15.8738 44.1406 18.3594C44.1406 29.2422 28.2051 38.9922 25 40.8418Z"
        fill="#4ECB71" />
</svg>
    