<svg width="354" height="76" viewBox="0 0 354 76" fill="none" xmlns="http://www.w3.org/2000/svg">
    <path
        d="M26.6563 15.0002C27.1623 15.007 27.6525 15.1747 28.0536 15.4781C28.4546 15.7815 28.745 16.2044 28.8813 16.6834L37.6969 47.6295L44.7031 25.8244C44.8474 25.3764 45.1276 24.9825 45.5061 24.6956C45.8847 24.4086 46.3434 24.2422 46.8209 24.2188C47.2983 24.1954 47.7717 24.3161 48.1774 24.5647C48.5831 24.8132 48.9017 25.1778 49.0906 25.6094L53.1719 34.9654H58.6562C59.2779 34.9654 59.874 35.2081 60.3135 35.6401C60.7531 36.0722 61 36.6581 61 37.2691C61 37.8801 60.7531 38.466 60.3135 38.898C59.874 39.3301 59.2779 39.5728 58.6562 39.5728H51.625C51.1658 39.573 50.7167 39.4407 50.3333 39.1923C49.95 38.9438 49.6494 38.5902 49.4688 38.1752L47.2719 33.1317L39.7969 56.3927C39.6444 56.8653 39.3408 57.277 38.9312 57.5665C38.5217 57.8561 38.028 58.008 37.5236 57.9997C37.0192 57.9914 36.531 57.8234 36.1315 57.5206C35.732 57.2178 35.4426 56.7964 35.3062 56.319L26.5188 25.4743L22.6125 37.9448C22.4655 38.4156 22.169 38.8277 21.7663 39.1207C21.3636 39.4137 20.876 39.5721 20.375 39.5728H13.3438C12.7221 39.5728 12.126 39.3301 11.6865 38.898C11.2469 38.466 11 37.8801 11 37.2691C11 36.6581 11.2469 36.0722 11.6865 35.6401C12.126 35.2081 12.7221 34.9654 13.3438 34.9654H18.6438L24.3844 16.6281C24.533 16.1518 24.8348 15.7357 25.2444 15.4422C25.654 15.1487 26.1494 14.9936 26.6563 15.0002Z"
        fill="#37C513" />
    <line x1="80.097" y1="10.6836" x2="80.097" y2="60.5408" stroke="#37C513" stroke-width="3.5" />
    <path
        d="M90.792 48V47.64L91.512 47.388C91.992 47.244 92.304 47.028 92.448 46.74C92.616 46.452 92.7 46.068 92.7 45.588V26.724C92.7 26.244 92.616 25.86 92.448 25.572C92.28 25.284 91.956 25.056 91.476 24.888L90.792 24.6V24.24H99.54C103.116 24.24 105.696 24.9 107.28 26.22C108.888 27.516 109.692 29.232 109.692 31.368C109.692 32.736 109.356 33.996 108.684 35.148C108.036 36.276 106.956 37.176 105.444 37.848C103.932 38.52 101.892 38.856 99.324 38.856H98.1V45.48C98.1 46.416 98.568 47.028 99.504 47.316L100.584 47.64V48H90.792ZM98.1 38.136H99.468C100.644 38.136 101.604 37.944 102.348 37.56C103.092 37.176 103.644 36.504 104.004 35.544C104.364 34.584 104.544 33.252 104.544 31.548C104.544 29.82 104.34 28.476 103.932 27.516C103.548 26.556 102.972 25.896 102.204 25.536C101.436 25.152 100.476 24.96 99.324 24.96H98.1V38.136ZM117.591 48.54C116.655 48.54 115.791 48.36 114.999 48C114.231 47.64 113.619 47.064 113.163 46.272C112.731 45.456 112.527 44.388 112.551 43.068L112.659 33.816C112.659 33.264 112.563 32.868 112.371 32.628C112.179 32.388 111.879 32.22 111.471 32.124L111.039 31.98V31.62L117.483 30.36L117.843 30.72L117.663 35.832V44.508C117.663 45.276 117.879 45.84 118.311 46.2C118.767 46.56 119.331 46.74 120.003 46.74C120.675 46.74 121.275 46.644 121.803 46.452C122.331 46.26 122.859 45.972 123.387 45.588L123.531 33.852C123.531 33.3 123.447 32.916 123.279 32.7C123.111 32.46 122.799 32.292 122.343 32.196L121.983 32.088V31.728L128.283 30.36L128.643 30.72L128.535 35.832V45.588C128.535 46.116 128.607 46.524 128.751 46.812C128.895 47.1 129.207 47.34 129.687 47.532L130.047 47.64V48L123.747 48.36L123.423 46.236C122.631 46.884 121.767 47.436 120.831 47.892C119.919 48.324 118.839 48.54 117.591 48.54ZM131.609 48V47.64L132.041 47.496C132.905 47.208 133.337 46.608 133.337 45.696V26.436C133.337 25.956 133.241 25.596 133.049 25.356C132.857 25.092 132.521 24.9 132.041 24.78L131.573 24.672V24.312L138.161 22.764L138.593 23.088L138.449 28.128V40.44C138.449 41.328 138.449 42.216 138.449 43.104C138.473 43.968 138.485 44.832 138.485 45.696C138.485 46.176 138.581 46.572 138.773 46.884C138.965 47.172 139.289 47.388 139.745 47.532L140.213 47.64V48H131.609ZM148.03 48.54C146.854 48.54 145.798 48.396 144.862 48.108C143.926 47.844 143.062 47.508 142.27 47.1L142.306 42.816H142.666L143.89 44.976C144.418 45.936 144.994 46.656 145.618 47.136C146.266 47.592 147.082 47.82 148.066 47.82C149.218 47.82 150.142 47.568 150.838 47.064C151.558 46.536 151.918 45.84 151.918 44.976C151.918 44.184 151.666 43.536 151.162 43.032C150.658 42.528 149.722 42.072 148.354 41.664L146.842 41.196C145.378 40.764 144.226 40.092 143.386 39.18C142.546 38.268 142.126 37.152 142.126 35.832C142.126 34.248 142.75 32.904 143.998 31.8C145.246 30.696 147.034 30.144 149.362 30.144C150.298 30.144 151.174 30.252 151.99 30.468C152.83 30.66 153.634 30.96 154.402 31.368L154.186 35.256H153.826L152.566 33.024C152.11 32.232 151.654 31.68 151.198 31.368C150.766 31.032 150.106 30.864 149.218 30.864C148.402 30.864 147.634 31.092 146.914 31.548C146.194 32.004 145.834 32.652 145.834 33.492C145.834 34.308 146.134 34.956 146.734 35.436C147.358 35.916 148.27 36.36 149.47 36.768L151.09 37.236C152.818 37.764 154.054 38.496 154.798 39.432C155.542 40.344 155.914 41.448 155.914 42.744C155.914 44.496 155.218 45.9 153.826 46.956C152.458 48.012 150.526 48.54 148.03 48.54ZM166.518 30.144C168.078 30.144 169.41 30.468 170.514 31.116C171.618 31.74 172.458 32.604 173.034 33.708C173.634 34.788 173.934 36.024 173.934 37.416C173.934 37.68 173.922 37.956 173.898 38.244C173.874 38.508 173.826 38.748 173.754 38.964H163.026C163.05 41.556 163.506 43.428 164.394 44.58C165.306 45.708 166.65 46.272 168.426 46.272C169.626 46.272 170.598 46.08 171.342 45.696C172.086 45.312 172.782 44.748 173.43 44.004L173.79 44.328C173.046 45.648 172.05 46.68 170.802 47.424C169.578 48.168 168.102 48.54 166.374 48.54C164.67 48.54 163.158 48.18 161.838 47.46C160.518 46.716 159.486 45.66 158.742 44.292C157.998 42.924 157.626 41.292 157.626 39.396C157.626 37.428 158.058 35.76 158.922 34.392C159.786 33 160.89 31.944 162.234 31.224C163.602 30.504 165.03 30.144 166.518 30.144ZM166.41 30.864C165.714 30.864 165.114 31.08 164.61 31.512C164.13 31.92 163.746 32.664 163.458 33.744C163.194 34.8 163.05 36.3 163.026 38.244H169.182C169.422 35.628 169.326 33.744 168.894 32.592C168.462 31.44 167.634 30.864 166.41 30.864ZM183.64 48V47.64L184.36 47.388C184.84 47.244 185.152 47.028 185.296 46.74C185.464 46.452 185.548 46.068 185.548 45.588V26.724C185.548 26.244 185.464 25.86 185.296 25.572C185.128 25.284 184.804 25.056 184.324 24.888L183.64 24.6V24.24H192.388C195.964 24.24 198.544 24.9 200.128 26.22C201.736 27.516 202.54 29.232 202.54 31.368C202.54 32.736 202.204 33.996 201.532 35.148C200.884 36.276 199.804 37.176 198.292 37.848C196.78 38.52 194.74 38.856 192.172 38.856H190.948V45.48C190.948 46.416 191.416 47.028 192.352 47.316L193.432 47.64V48H183.64ZM190.948 38.136H192.316C193.492 38.136 194.452 37.944 195.196 37.56C195.94 37.176 196.492 36.504 196.852 35.544C197.212 34.584 197.392 33.252 197.392 31.548C197.392 29.82 197.188 28.476 196.78 27.516C196.396 26.556 195.82 25.896 195.052 25.536C194.284 25.152 193.324 24.96 192.172 24.96H190.948V38.136ZM208.792 48.54C207.4 48.54 206.224 48.144 205.264 47.352C204.328 46.56 203.86 45.42 203.86 43.932C203.86 42.804 204.436 41.772 205.588 40.836C206.74 39.876 208.552 39.156 211.024 38.676C211.408 38.604 211.84 38.532 212.32 38.46C212.8 38.364 213.304 38.268 213.832 38.172V35.328C213.832 33.696 213.628 32.556 213.22 31.908C212.836 31.236 212.224 30.9 211.384 30.9C210.808 30.9 210.352 31.092 210.016 31.476C209.68 31.836 209.464 32.472 209.368 33.384L209.296 33.78C209.248 34.812 208.996 35.568 208.54 36.048C208.084 36.528 207.52 36.768 206.848 36.768C206.224 36.768 205.708 36.576 205.3 36.192C204.892 35.808 204.688 35.292 204.688 34.644C204.688 33.66 205.024 32.832 205.696 32.16C206.392 31.488 207.304 30.984 208.432 30.648C209.56 30.312 210.784 30.144 212.104 30.144C214.24 30.144 215.884 30.672 217.036 31.728C218.212 32.76 218.8 34.452 218.8 36.804V44.76C218.8 45.84 219.304 46.38 220.312 46.38H221.104L221.428 46.668C220.972 47.244 220.468 47.688 219.916 48C219.388 48.312 218.632 48.468 217.648 48.468C216.592 48.468 215.752 48.228 215.128 47.748C214.528 47.244 214.132 46.584 213.94 45.768C213.22 46.536 212.476 47.196 211.708 47.748C210.964 48.276 209.992 48.54 208.792 48.54ZM210.988 46.344C211.468 46.344 211.912 46.236 212.32 46.02C212.752 45.78 213.256 45.42 213.832 44.94V38.892C213.592 38.94 213.352 38.988 213.112 39.036C212.872 39.084 212.596 39.132 212.284 39.18C211.18 39.468 210.292 39.96 209.62 40.656C208.972 41.328 208.648 42.24 208.648 43.392C208.648 44.376 208.876 45.12 209.332 45.624C209.788 46.104 210.34 46.344 210.988 46.344ZM222.277 48V47.64L222.709 47.496C223.573 47.208 224.005 46.608 224.005 45.696V26.436C224.005 25.956 223.909 25.596 223.717 25.356C223.525 25.092 223.189 24.9 222.709 24.78L222.241 24.672V24.312L228.829 22.764L229.261 23.088L229.117 28.128V40.44C229.117 41.328 229.117 42.216 229.117 43.104C229.141 43.968 229.153 44.832 229.153 45.696C229.153 46.176 229.249 46.572 229.441 46.884C229.633 47.172 229.957 47.388 230.413 47.532L230.881 47.64V48H222.277ZM241.506 30.144C243.066 30.144 244.398 30.468 245.502 31.116C246.606 31.74 247.446 32.604 248.022 33.708C248.622 34.788 248.922 36.024 248.922 37.416C248.922 37.68 248.91 37.956 248.886 38.244C248.862 38.508 248.814 38.748 248.742 38.964H238.014C238.038 41.556 238.494 43.428 239.382 44.58C240.294 45.708 241.638 46.272 243.414 46.272C244.614 46.272 245.586 46.08 246.33 45.696C247.074 45.312 247.77 44.748 248.418 44.004L248.778 44.328C248.034 45.648 247.038 46.68 245.79 47.424C244.566 48.168 243.09 48.54 241.362 48.54C239.658 48.54 238.146 48.18 236.826 47.46C235.506 46.716 234.474 45.66 233.73 44.292C232.986 42.924 232.614 41.292 232.614 39.396C232.614 37.428 233.046 35.76 233.91 34.392C234.774 33 235.878 31.944 237.222 31.224C238.59 30.504 240.018 30.144 241.506 30.144ZM241.398 30.864C240.702 30.864 240.102 31.08 239.598 31.512C239.118 31.92 238.734 32.664 238.446 33.744C238.182 34.8 238.038 36.3 238.014 38.244H244.17C244.41 35.628 244.314 33.744 243.882 32.592C243.45 31.44 242.622 30.864 241.398 30.864ZM257.556 48.54C256.02 48.54 254.82 48.156 253.956 47.388C253.116 46.62 252.696 45.396 252.696 43.716V31.404H250.212V31.044L251.076 30.9C251.82 30.732 252.456 30.492 252.984 30.18C253.536 29.868 254.076 29.448 254.604 28.92L257.556 25.644H257.916L257.808 30.684H261.84V31.404H257.772V44.364C257.772 45.204 257.952 45.84 258.312 46.272C258.696 46.704 259.176 46.92 259.752 46.92C260.256 46.92 260.7 46.8 261.084 46.56C261.468 46.296 261.852 45.948 262.236 45.516L262.596 45.876C262.116 46.692 261.456 47.34 260.616 47.82C259.776 48.3 258.756 48.54 257.556 48.54ZM270.529 48.54C268.993 48.54 267.793 48.156 266.929 47.388C266.089 46.62 265.669 45.396 265.669 43.716V31.404H263.185V31.044L264.049 30.9C264.793 30.732 265.429 30.492 265.957 30.18C266.509 29.868 267.049 29.448 267.577 28.92L270.529 25.644H270.889L270.781 30.684H274.813V31.404H270.745V44.364C270.745 45.204 270.925 45.84 271.285 46.272C271.669 46.704 272.149 46.92 272.725 46.92C273.229 46.92 273.673 46.8 274.057 46.56C274.441 46.296 274.825 45.948 275.209 45.516L275.569 45.876C275.089 46.692 274.429 47.34 273.589 47.82C272.749 48.3 271.729 48.54 270.529 48.54ZM285.627 30.144C287.187 30.144 288.519 30.468 289.623 31.116C290.727 31.74 291.567 32.604 292.143 33.708C292.743 34.788 293.043 36.024 293.043 37.416C293.043 37.68 293.031 37.956 293.007 38.244C292.983 38.508 292.935 38.748 292.863 38.964H282.135C282.159 41.556 282.615 43.428 283.503 44.58C284.415 45.708 285.759 46.272 287.535 46.272C288.735 46.272 289.707 46.08 290.451 45.696C291.195 45.312 291.891 44.748 292.539 44.004L292.899 44.328C292.155 45.648 291.159 46.68 289.911 47.424C288.687 48.168 287.211 48.54 285.483 48.54C283.779 48.54 282.267 48.18 280.947 47.46C279.627 46.716 278.595 45.66 277.851 44.292C277.107 42.924 276.735 41.292 276.735 39.396C276.735 37.428 277.167 35.76 278.031 34.392C278.895 33 279.999 31.944 281.343 31.224C282.711 30.504 284.139 30.144 285.627 30.144ZM285.519 30.864C284.823 30.864 284.223 31.08 283.719 31.512C283.239 31.92 282.855 32.664 282.567 33.744C282.303 34.8 282.159 36.3 282.135 38.244H288.291C288.531 35.628 288.435 33.744 288.003 32.592C287.571 31.44 286.743 30.864 285.519 30.864Z"
        fill="#37C513" />
</svg>
    