<svg xmlns="http://www.w3.org/2000/svg" xmlns:xlink="http://www.w3.org/1999/xlink" version="1.1" x="0px" y="0px" viewBox="0 0 1024 1280" style="enable-background:new 0 0 1024 1024;" xml:space="preserve"><g><path d="M852.8,119.9c-8.3-16.8-26.5-26.1-44.7-26.2c-3.2,0-6.5,0-9.7,0H156.5c-10,0-19.9,0-29.9,0   c-14.5,0-29.3,5.3-38.6,16.8c-8.3,10.2-12.3,21.8-12.3,34.9V764c0,9.1-0.1,18.2,0,27.3c0.1,7.9,2,15.8,5.6,22.9   c0,0.1,0.1,0.2,0.2,0.3c7.1,13.6,20.2,23.4,35.9,26c3.6,0.5,7.1,0.7,10.7,0.7h468.2c-11.3-2.3-21.9-7.3-30.6-14.6   c-11.1-9.2-18.7-21.7-22-35.4H129.8c-1.2,0-2.3,0-3.5,0H126c-0.1,0-0.2,0-0.3,0c0,0,0,0,0,0v0c0,0,0,0,0,0v-0.5c0-1.7,0-3.3,0-5   c0-8,0-15.9,0-23.9v-92.4c31.1-30.8,62.3-61.7,93.4-92.5c9.4,9.3,18.7,18.6,28.1,27.9c24.3,24.2,48.6,48.3,72.9,72.4   c5.6,5.5,11.1,11.1,16.7,16.6c9.6,9.5,25.7,9.6,35.4,0c11.1-11.1,22.3-22.2,33.4-33.3c26.8-26.6,53.5-53.3,80.3-79.9   c32.4-32.2,64.8-64.5,97.2-96.7c28-27.9,56-55.7,84-83.6c7.9-7.8,16-15.6,23.9-23.4c10.2,10,20.3,20.1,30.5,30.1   c25.6,25.3,51.1,50.6,76.7,75.9c3.5,3.4,6.9,6.9,10.4,10.3v39.1c3.8,2.8,7.3,5.9,10.5,9.4l0,0c7.6,8.5,14.7,17,21.5,25.2   c3.3,4,6.4,7.8,9.6,11.5c2.8,3.3,5.5,6.5,8.3,9.8V158.5C858.5,145,859.1,132.7,852.8,119.9z M367,292.8   c-0.4,31.5-22.9,59.9-54.2,65.9c-27.6,5.3-56.1-7.2-70.7-31.3c-14.6-24.2-12.1-55.6,5.7-77.4c17.7-21.7,48.4-30.3,74.8-20.6   c26.5,9.7,44.1,35,44.5,63.2V292.8z"/><path d="M941.4,788.1c-3.1,3.2-7.5,4.4-11.8,4.7c-0.5,0-1.1,0-1.6,0c-1.1,0-2.1,0-3.2,0h-65.3V880   c0,11,0.5,22.2,0,33.2c-0.2,3.4-0.9,6-2,8.2c-0.2,0.3-0.3,0.6-0.5,0.9c-0.2,0.3-0.4,0.6-0.6,0.8c-0.2,0.3-0.4,0.5-0.6,0.8v0   c-0.2,0.3-0.4,0.5-0.7,0.7c-0.7,0.7-1.4,1.3-2.2,1.8c-0.5,0.4-1.1,0.7-1.7,1c-0.9,0.4-1.8,0.8-2.8,1.1c-0.6,0.2-1.3,0.4-2,0.6   c-3.7,0.9-7.9,1.1-12,1.1c-3.6,0-7.2-0.2-10.5-0.2H717.3c-2,0-4.1,0.1-6.2,0.1c-1,0-2,0-3.1-0.1c-9.5-0.6-16.2-7.4-16.8-16.9   c-0.1-1.1,0-2.3,0-3.5v-117h-80.5c-2.8,0-5.5-0.5-7.9-1.4c-6.3-2.4-11-7.8-11-15.5c0-7.2,5.8-12.7,10.2-17.9   c32-37.8,64-75.7,96-113.5c15.5-18.3,30.9-36.6,46.4-54.9c3.8-4.5,7.7-9.1,11.5-13.6c0.2-0.3,0.4-0.5,0.7-0.8   c0.2-0.3,0.5-0.5,0.7-0.7s0.5-0.5,0.7-0.7c0.5-0.4,1-0.8,1.5-1.2c0.5-0.4,1.1-0.7,1.6-1c0.6-0.3,1.1-0.6,1.7-0.8   c0.6-0.2,1.2-0.4,1.8-0.6c0.9-0.3,1.8-0.4,2.7-0.5c0.6-0.1,1.2-0.1,1.8-0.1c1.7,0,3.5,0.3,5.1,0.8c0.6,0.2,1.1,0.4,1.7,0.6   c2.2,0.9,4.2,2.4,5.9,4.3c9.1,10.1,17.8,20.8,26.5,31.3c1.2,1.4,2.3,2.8,3.5,4.2c15.5,18.3,31,36.6,46.5,55   c2.7,3.2,5.4,6.4,8.1,9.6c24.7,29.2,49.4,58.4,74.1,87.6c1.5,1.1,2.6,2.5,3.4,4.3C947.3,774.7,947.3,782.1,941.4,788.1z"/></g><text x="0" y="1039" fill="#000000" font-size="5px" font-weight="bold" font-family="'Helvetica Neue', Helvetica, Arial-Unicode, Arial, Sans-serif">Created by shashank singh</text><text x="0" y="1044" fill="#000000" font-size="5px" font-weight="bold" font-family="'Helvetica Neue', Helvetica, Arial-Unicode, Arial, Sans-serif">from the Noun Project</text></svg>